<?xml version="1.0" encoding="utf-8"?>
<!-- Generator: Adobe Illustrator 24.0.0, SVG Export Plug-In . SVG Version: 6.00 Build 0)  -->
<svg version="1.1" id="Layer_1" xmlns="http://www.w3.org/2000/svg" xmlns:xlink="http://www.w3.org/1999/xlink" x="0px" y="0px"
	 viewBox="0 0 300 300" style="enable-background:new 0 0 300 300;" xml:space="preserve">
<style type="text/css">
	.st0{fill:#FFFFFF;}
</style>
<g>
	<g>
		<g>
			<path class="st0" d="M152.2,72.8c21,0,37.8,18.1,37.8,40.4c0,25.2-45.9,74.1-84.1,106.1c-38.2-32-84.1-80.8-84.1-106.1
				c0-22.3,16.8-40.4,37.8-40.4c12,0,23.3,5.8,30.4,16.2l15.8,23l15.8-23C129.2,78.6,140.2,72.8,152.2,72.8 M152.2,53.4
				c-19.1,0-35.9,9.7-46.2,24.6C95.6,63.1,78.8,53.4,59.7,53.4C28,53.4,2.4,80.2,2.4,113.2c0,50.1,103.5,131,103.5,131
				s103.5-80.8,103.5-131C209.4,80.2,183.9,53.4,152.2,53.4L152.2,53.4z"/>
		</g>
		<g>
			<path class="st0" d="M195.2,246.8l-5.8-4.5c-1-0.6-25.2-18.8-49.8-44.9l14.2-13.3c16.2,17.1,32.7,31,41.4,37.8
				c27.2-22.6,82.1-74.4,82.1-105.1c0-24.3-18.4-44-41.4-44c-6.1,0-25.9,7.1-33.3,17.8l-8.1,11.6l-7.8-11.6
				c-7.8-11.3-19.7-17.8-33-17.8c-22.6,0-41.4,19.7-41.4,44c0,15.2,10.3,34.6,29.8,56.3L127.6,186c-23-25.9-34.6-49.2-34.6-69.2
				c0-34.9,27.2-63.4,60.8-63.4c15.5,0,30.4,6.1,41.7,17.1c12.3-10.7,30.4-17.1,40.4-17.1c33.6,0,60.8,28.5,60.8,63.4
				c0,48.5-86,117.7-95.7,125.5L195.2,246.8z"/>
		</g>
	</g>
</g>
</svg>
