<?xml version="1.0" encoding="utf-8"?>
<!-- Generator: Adobe Illustrator 24.0.0, SVG Export Plug-In . SVG Version: 6.00 Build 0)  -->
<svg version="1.1" id="Layer_1" xmlns="http://www.w3.org/2000/svg" xmlns:xlink="http://www.w3.org/1999/xlink" x="0px" y="0px"
	 viewBox="0 0 375 70" style="enable-background:new 0 0 375 70;" xml:space="preserve">
<style type="text/css">
	.st0{fill:#FFFFFF;}
</style>
<g>
	<path class="st0" d="M131.3,22v36h-5.9V42.6h-16.7V58h-5.9V22h5.9v15.1h16.7V22H131.3z"/>
	<path class="st0" d="M150,53.8c2.5,0,4.6-0.8,6.4-3.4l4,2.9c-2.5,3.6-5.9,5.3-10.6,5.3c-7.3,0-12.6-5.4-12.6-13.6
		c0-8.5,5.1-14,12.1-14c7.3,0,12.1,5.7,12.1,14.1v1.5H143C143.3,51,145.5,53.8,150,53.8z M143,42.2h12.5c-0.7-4-3.1-6.2-6.3-6.2
		C146.2,35.9,143.8,38.1,143,42.2z"/>
	<path class="st0" d="M186.5,41.7V58H181v-3.1c-1.2,2-3.6,3.7-7.5,3.7c-4.9,0-8.6-3-8.6-8.2c0-5.8,4.4-8.3,12.2-8.3h3.9v-0.3
		c0-4-2-5.8-5.3-5.8c-2.6,0-4.6,1.3-6.1,3.2l-3.6-3.4c2.2-3,5.7-4.8,10-4.8C182.3,31.1,186.5,34.5,186.5,41.7z M181,46.3h-3
		c-4.5,0-7.6,0.8-7.6,4c0,2.5,1.7,3.8,4.4,3.8c3.9,0,6.3-3.4,6.3-6L181,46.3L181,46.3z"/>
	<path class="st0" d="M193.2,22h5.5v36h-5.5V22z"/>
	<path class="st0" d="M219.6,57.8c-1.6,0.6-3.4,0.9-4.9,0.9c-4.5,0-7.4-1.9-7.4-7.2V36.7h-3.8v-4.9h3.8v-7.2h5.5v7.2h6.2v4.9h-6.2
		v13.4c0,2.8,0.7,3.6,2.9,3.6c0.8,0,1.6-0.1,2.7-0.5L219.6,57.8z"/>
	<path class="st0" d="M246.5,40.2V58H241V41.6c0-3.6-1.8-5.4-4.7-5.4c-3.9,0-6.1,3.3-6.1,6.6V58h-5.5V22h5.5v12.8
		c0.9-1.6,3.4-3.8,7.8-3.8C242.8,31.1,246.5,34.3,246.5,40.2z"/>
	<path class="st0" d="M289.3,31.8L281.6,58h-5.7l-6.1-19.6l-6,19.6h-5.7l-7.8-26.2h6l5,19l5.8-19h5.6l5.7,19l5-19H289.3z"/>
	<path class="st0" d="M313.1,41.7V58h-5.5v-3.1c-1.2,2-3.6,3.7-7.5,3.7c-4.9,0-8.6-3-8.6-8.2c0-5.8,4.4-8.3,12.2-8.3h3.9v-0.3
		c0-4-2-5.8-5.3-5.8c-2.6,0-4.6,1.3-6.1,3.2l-3.6-3.4c2.2-3,5.7-4.8,10-4.8C308.9,31.1,313.1,34.5,313.1,41.7z M307.6,46.3h-3
		c-4.5,0-7.6,0.8-7.6,4c0,2.5,1.7,3.8,4.4,3.8c3.9,0,6.3-3.4,6.3-6L307.6,46.3L307.6,46.3z"/>
	<path class="st0" d="M341.5,31.8L331.8,58h-5.6l-9.7-26.2h6.1l6.5,19.5l6.6-19.5H341.5z"/>
	<path class="st0" d="M355.9,53.8c2.5,0,4.6-0.8,6.4-3.4l4,2.9c-2.5,3.6-5.9,5.3-10.6,5.3c-7.3,0-12.6-5.4-12.6-13.6
		c0-8.5,5.1-14,12.1-14c7.3,0,12.1,5.7,12.1,14.1v1.5h-18.4C349.2,51,351.4,53.8,355.9,53.8z M348.9,42.2h12.5
		c-0.7-4-3.1-6.2-6.3-6.2C352.1,35.9,349.7,38.1,348.9,42.2z"/>
</g>
<g>
	<g>
		<g>
			<path class="st0" d="M49.3,12C55.8,12,61,17.6,61,24.5c0,7.8-14.2,22.9-26,32.8c-11.8-9.9-26-25-26-32.8C9,17.6,14.2,12,20.7,12
				c3.7,0,7.2,1.8,9.4,5l4.9,7.1l4.9-7.1C42.2,13.8,45.6,12,49.3,12 M49.3,6C43.4,6,38.2,9,35,13.6C31.8,9,26.6,6,20.7,6
				C10.9,6,3,14.3,3,24.5C3,40,35,65,35,65s32-25,32-40.5C67,14.3,59.1,6,49.3,6L49.3,6z"/>
		</g>
		<g>
			<path class="st0" d="M62.6,65.8l-1.8-1.4c-0.3-0.2-7.8-5.8-15.4-13.9l4.4-4.1c5,5.3,10.1,9.6,12.8,11.7c8.4-7,25.4-23,25.4-32.5
				C88,18.1,82.3,12,75.2,12c-1.9,0-8,2.2-10.3,5.5l-2.5,3.6L60,17.5C57.6,14,53.9,12,49.8,12c-7,0-12.8,6.1-12.8,13.6
				c0,4.7,3.2,10.7,9.2,17.4l-4.5,4C34.6,39,31,31.8,31,25.6C31,14.8,39.4,6,49.8,6c4.8,0,9.4,1.9,12.9,5.3C66.5,8,72.1,6,75.2,6
				C85.6,6,94,14.8,94,25.6c0,15-26.6,36.4-29.6,38.8L62.6,65.8z"/>
		</g>
	</g>
</g>
</svg>
